<?xml version="1.0" standalone="no"?>
<!DOCTYPE svg PUBLIC "-//W3C//DTD SVG 20010904//EN"
 "http://www.w3.org/TR/2001/REC-SVG-20010904/DTD/svg10.dtd">
<svg version="1.0" xmlns="http://www.w3.org/2000/svg"
 width="133.000000pt" height="133.000000pt" viewBox="0 0 133.000000 133.000000"
 preserveAspectRatio="xMidYMid meet">

<g transform="translate(0.000000,133.000000) scale(0.100000,-0.100000)"
fill="#000000" stroke="none">
<path d="M300 1266 l0 -64 -103 -4 c-115 -4 -144 -15 -177 -71 -19 -31 -20
-54 -20 -525 0 -559 -2 -545 74 -582 41 -19 59 -20 591 -20 532 0 550 1 591
20 76 37 74 23 74 582 0 471 -1 494 -20 525 -33 56 -62 67 -177 71 l-103 4 0
64 0 64 -70 0 -70 0 0 -65 0 -65 -225 0 -225 0 0 65 0 65 -70 0 -70 0 0 -64z
m880 -736 l0 -400 -515 0 -515 0 0 400 0 400 515 0 515 0 0 -400z"/>
<path d="M300 675 l0 -65 70 0 70 0 0 65 0 65 -70 0 -70 0 0 -65z"/>
<path d="M590 675 l0 -65 75 0 75 0 0 65 0 65 -75 0 -75 0 0 -65z"/>
<path d="M890 675 l0 -65 70 0 70 0 0 65 0 65 -70 0 -70 0 0 -65z"/>
<path d="M300 405 l0 -65 70 0 70 0 0 65 0 65 -70 0 -70 0 0 -65z"/>
<path d="M590 405 l0 -65 75 0 75 0 0 65 0 65 -75 0 -75 0 0 -65z"/>
<path d="M890 405 l0 -65 70 0 70 0 0 65 0 65 -70 0 -70 0 0 -65z"/>
</g>
</svg>
