<?xml version="1.0" standalone="no"?>
<!DOCTYPE svg PUBLIC "-//W3C//DTD SVG 20010904//EN"
 "http://www.w3.org/TR/2001/REC-SVG-20010904/DTD/svg10.dtd">
<svg version="1.0" xmlns="http://www.w3.org/2000/svg"
 width="133.000000pt" height="126.000000pt" viewBox="0 0 133.000000 126.000000"
 preserveAspectRatio="xMidYMid meet">

<g transform="translate(0.000000,126.000000) scale(0.100000,-0.100000)"
fill="#000000" stroke="none">
<path d="M322 937 c-212 -213 -322 -329 -322 -343 0 -24 18 -44 39 -44 9 0
153 137 322 306 l305 305 293 -301 c167 -171 304 -303 317 -306 29 -7 54 11
54 39 0 29 -636 667 -665 667 -13 0 -131 -111 -343 -323z"/>
<path d="M417 842 l-247 -247 0 -273 0 -273 25 -24 c24 -24 28 -25 184 -25
l161 0 2 208 3 207 123 3 122 3 0 -211 0 -210 165 0 c163 0 166 0 190 25 l25
24 0 273 0 273 -248 248 c-136 136 -249 247 -252 247 -3 0 -116 -111 -253
-248z"/>
</g>
</svg>
