<?xml version="1.0" standalone="no"?>
<!DOCTYPE svg PUBLIC "-//W3C//DTD SVG 20010904//EN"
 "http://www.w3.org/TR/2001/REC-SVG-20010904/DTD/svg10.dtd">
<svg version="1.0" xmlns="http://www.w3.org/2000/svg"
 width="125.000000pt" height="138.000000pt" viewBox="0 0 125.000000 138.000000"
 preserveAspectRatio="xMidYMid meet">

<g transform="translate(0.000000,138.000000) scale(0.100000,-0.100000)"
fill="#fff" stroke="none">
<path d="M529 1367 c-282 -80 -370 -434 -157 -633 27 -25 74 -57 106 -72 48
-23 70 -27 147 -27 77 0 99 4 147 27 248 115 302 431 106 614 -67 63 -141 95
-231 100 -42 2 -91 -1 -118 -9z m214 -95 c58 -26 123 -91 150 -151 29 -63 29
-169 0 -232 -27 -60 -92 -125 -152 -152 -63 -29 -169 -29 -232 0 -125 56 -197
195 -169 327 37 181 234 283 403 208z"/>
<path d="M187 606 c-108 -39 -149 -111 -172 -305 -9 -74 -14 -149 -10 -168 7
-41 59 -101 102 -119 47 -20 989 -20 1036 0 43 18 95 78 102 120 12 59 -23
294 -51 354 -39 81 -119 131 -210 132 -47 0 -67 -17 -62 -52 3 -20 11 -24 53
-29 112 -14 151 -57 171 -192 8 -51 15 -118 17 -149 2 -51 -1 -61 -26 -85
l-27 -28 -485 0 -485 0 -27 28 c-25 24 -28 34 -26 85 2 31 9 98 17 149 20 135
59 178 171 192 42 5 50 9 53 29 2 13 -2 30 -8 38 -15 18 -82 18 -133 0z"/>
</g>
</svg>
